<?xml version="1.0" encoding="UTF-8"?>
<svg width="116px" height="134px" viewBox="0 0 116 134" version="1.1" xmlns="http://www.w3.org/2000/svg" xmlns:xlink="http://www.w3.org/1999/xlink">
    <!-- Generator: Sketch 50.2 (55047) - http://www.bohemiancoding.com/sketch -->
    <title>Deploy Rocket</title>
    <desc>Created with Sketch.</desc>
    <defs></defs>
    <g id="Page-11" stroke="none" stroke-width="1" fill="none" fill-rule="evenodd">
        <g id="Deploy-Rocket" transform="translate(60.500000, 68.000000) rotate(39.000000) translate(-60.500000, -68.000000) translate(19.000000, -16.000000)" stroke="#000000">
            <path d="M1.58075399,119.509825 L3.18976369,127.977787 L24.9716243,115.408186 L21.4974737,86.5083512 L1.58075399,119.509825 Z" id="Rectangle-2" stroke-width="3" fill="#F05B6C"></path>
            <path d="M57.580754,119.509825 L59.1897637,127.977787 L80.9716243,115.408186 L77.4974737,86.5083512 L57.580754,119.509825 Z" id="Rectangle-2" stroke-width="3" fill="#F05B6C" transform="translate(69.289551, 106.166260) scale(-1, 1) translate(-69.289551, -106.166260) "></path>
            <path d="M23.6235943,104.408691 L58.5441881,104.408691 C62.7898896,67.9527963 63.9414157,43.7688239 62.0208842,31.9940678 C59.8814496,23.106415 56.0221827,16.0764873 50.8745243,10.526766 C48.6799237,8.16075391 46.3501147,6.16977016 43.86249,4.41924801 C42.9227797,3.75798115 42.0012807,3.1587562 41.0034428,2.54798516 C40.6985677,2.36137281 40.0819684,1.99302204 39.5909056,1.70011542 C34.8551031,3.99960293 31.1080534,6.54670465 27.6119314,10.3044021 C22.6643619,15.6221425 19.0934446,22.6851366 17.213052,31.9942592 L17.2019935,32.0445432 C15.2928744,40.0665804 17.4217888,64.327224 23.6235943,104.408691 Z" id="Rectangle" stroke-width="3" fill="#E3E2E3"></path>
            <path d="M24.1021117,104 L25.2706877,116 L56.6407811,116 L57.8904528,104 L24.1021117,104 Z" id="Rectangle-3" stroke-width="2" fill="#B2B1C2"></path>
            <path d="M39.6580805,2.10229383 C29.5809128,6.88253274 23.0733477,14.1667417 20.0800898,24 L58.4475262,24 C54.8157291,13.5348124 48.5604412,6.2550794 39.6580805,2.10229383 Z" id="Rectangle" stroke-width="2" fill="#F05B6C"></path>
            <ellipse id="Oval" fill="#B2B1C2" cx="40" cy="54.5" rx="13.5" ry="14"></ellipse>
            <ellipse id="Oval" fill="#C4E7ED" cx="40" cy="54.5" rx="8.5" ry="9"></ellipse>
            <path d="M41.5,167.271484 C52.3295898,156.519043 55,146.508129 55,138.5 C55,130.491871 48.9558441,124 41.5,124 C34.0441559,124 28,130.491871 28,138.5 C28,146.508129 31.2856445,157.445312 41.5,167.271484 Z" id="Oval-2" fill="#F59172"></path>
            <path d="M41.5,154.245009 C46.714247,147.474953 48,141.171785 48,136.12963 C48,131.087474 45.0898509,127 41.5,127 C37.9101491,127 35,131.087474 35,136.12963 C35,141.171785 36.581977,148.05816 41.5,154.245009 Z" id="Oval-2" fill="#EDDC67"></path>
            <path d="M29.4452006,117 L33.2114767,127 L48.995875,127 L52.6250254,117 L29.4452006,117 Z" id="Rectangle-4" stroke-width="2" fill="#9898AD"></path>
        </g>
    </g>
</svg>